HIERARCHY
ROOT Hip
{
	OFFSET -0.209006 -0.147981 0.247551
	CHANNELS 6 Xposition Yposition Zposition Xrotation Yrotation Zrotation
	JOINT LowerSpine
	{
		OFFSET -0.009510 0.142251 0.266717
		CHANNELS 6 Xposition Yposition Zposition Xrotation Yrotation Zrotation
		JOINT MiddleSpine
		{
			OFFSET -0.010537 -0.022321 0.236130
			CHANNELS 3 Xrotation Yrotation Zrotation
			JOINT Chest
			{
				OFFSET -0.012152 0.044878 0.295645
				CHANNELS 3 Xrotation Yrotation Zrotation
				JOINT Neck
				{
					OFFSET -0.028850 -0.018819 0.660497
					CHANNELS 6 Xposition Yposition Zposition Xrotation Yrotation Zrotation
					JOINT Head
					{
						OFFSET -0.017619 -0.119057 0.367810
						CHANNELS 3 Xrotation Yrotation Zrotation
						End Site
						{
							OFFSET -0.002371 -0.004128 0.053441
						}
					}
				}
				JOINT LClavicle
				{
					OFFSET 0.029635 -0.227484 0.630049
					CHANNELS 6 Xposition Yposition Zposition Xrotation Yrotation Zrotation
					JOINT LShoulder
					{
						OFFSET 0.348456 0.138611 0.113588
						CHANNELS 3 Xrotation Yrotation Zrotation
						JOINT LForearm
						{
							OFFSET 0.827858 -0.004510 0.033227
							CHANNELS 3 Xrotation Yrotation Zrotation
							JOINT LHand
							{
								OFFSET 0.690390 -0.005818 0.032076
								CHANNELS 3 Xrotation Yrotation Zrotation
								JOINT LFinger1
								{
									OFFSET 0.265655 -0.079234 0.031408
									CHANNELS 6 Xposition Yposition Zposition Xrotation Yrotation Zrotation
									JOINT LFinger11
									{
										OFFSET 0.100948 -0.017910 -0.020893
										CHANNELS 3 Xrotation Yrotation Zrotation
										JOINT LFinger12
										{
											OFFSET 0.068915 -0.012231 -0.014266
											CHANNELS 3 Xrotation Yrotation Zrotation
											End Site
											{
												OFFSET 0.051313 -0.008241 -0.013330
											}
										}
									}
								}
								JOINT LFinger2
								{
									OFFSET 0.270319 -0.011623 0.038441
									CHANNELS 6 Xposition Yposition Zposition Xrotation Yrotation Zrotation
									JOINT LFinger21
									{
										OFFSET 0.123751 -0.001054 0.005734
										CHANNELS 3 Xrotation Yrotation Zrotation
										JOINT LFinger22
										{
											OFFSET 0.068595 -0.000573 0.003198
											CHANNELS 3 Xrotation Yrotation Zrotation
											End Site
											{
												OFFSET 0.053628 -0.000658 -0.001462
											}
										}
									}
								}
								JOINT LFinger3
								{
									OFFSET 0.257336 0.056355 0.032064
									CHANNELS 6 Xposition Yposition Zposition Xrotation Yrotation Zrotation
									JOINT LFinger31
									{
										OFFSET 0.112633 0.005695 -0.000485
										CHANNELS 3 Xrotation Yrotation Zrotation
										JOINT LFinger32
										{
											OFFSET 0.064183 0.003257 -0.000255
											CHANNELS 3 Xrotation Yrotation Zrotation
											End Site
											{
												OFFSET 0.053455 0.002061 -0.004107
											}
										}
									}
								}
								JOINT LFinger4
								{
									OFFSET 0.240922 0.102587 -0.002771
									CHANNELS 6 Xposition Yposition Zposition Xrotation Yrotation Zrotation
									JOINT LFinger41
									{
										OFFSET 0.069939 0.018758 -0.010490
										CHANNELS 3 Xrotation Yrotation Zrotation
										JOINT LFinger42
										{
											OFFSET 0.051286 0.013763 -0.007676
											CHANNELS 3 Xrotation Yrotation Zrotation
											End Site
											{
												OFFSET 0.051211 0.011510 -0.011113
											}
										}
									}
								}
								JOINT LFinger0
								{
									OFFSET 0.056681 -0.040770 -0.041464
									CHANNELS 6 Xposition Yposition Zposition Xrotation Yrotation Zrotation
									JOINT LFinger01
									{
										OFFSET 0.103599 -0.077564 -0.033062
										CHANNELS 3 Xrotation Yrotation Zrotation
										JOINT LFinger02
										{
											OFFSET 0.068333 -0.048707 -0.023658
											CHANNELS 3 Xrotation Yrotation Zrotation
											End Site
											{
												OFFSET 0.042828 -0.029040 -0.014180
											}
										}
									}
								}
							}
						}
					}
				}
				JOINT RClavicle
				{
					OFFSET -0.090411 -0.225770 0.624854
					CHANNELS 6 Xposition Yposition Zposition Xrotation Yrotation Zrotation
					JOINT RShoulder
					{
						OFFSET -0.352933 0.148651 0.083255
						CHANNELS 3 Xrotation Yrotation Zrotation
						JOINT RForearm
						{
							OFFSET -0.827425 0.019128 -0.038402
							CHANNELS 3 Xrotation Yrotation Zrotation
							JOINT RHand
							{
								OFFSET -0.690464 0.013901 -0.027678
								CHANNELS 3 Xrotation Yrotation Zrotation
								JOINT RFinger1
								{
									OFFSET -0.269528 -0.071592 0.008252
									CHANNELS 6 Xposition Yposition Zposition Xrotation Yrotation Zrotation
									JOINT RFinger11
									{
										OFFSET -0.099235 -0.015051 -0.029556
										CHANNELS 3 Xrotation Yrotation Zrotation
										JOINT RFinger12
										{
											OFFSET -0.067745 -0.010279 -0.020186
											CHANNELS 3 Xrotation Yrotation Zrotation
											End Site
											{
												OFFSET -0.050184 -0.006791 -0.017721
											}
										}
									}
								}
								JOINT RFinger2
								{
									OFFSET -0.272850 -0.003869 0.014937
									CHANNELS 6 Xposition Yposition Zposition Xrotation Yrotation Zrotation
									JOINT RFinger21
									{
										OFFSET -0.123764 0.002481 -0.004974
										CHANNELS 3 Xrotation Yrotation Zrotation
										JOINT RFinger22
										{
											OFFSET -0.068603 0.001389 -0.002739
											CHANNELS 3 Xrotation Yrotation Zrotation
											End Site
											{
												OFFSET -0.053299 0.000869 -0.006089
											}
										}
									}
								}
								JOINT RFinger3
								{
									OFFSET -0.257432 0.063706 0.009792
									CHANNELS 6 Xposition Yposition Zposition Xrotation Yrotation Zrotation
									JOINT RFinger31
									{
										OFFSET -0.111963 0.008903 -0.010204
										CHANNELS 3 Xrotation Yrotation Zrotation
										JOINT RFinger32
										{
											OFFSET -0.063805 0.005084 -0.005793
											CHANNELS 3 Xrotation Yrotation Zrotation
											End Site
											{
												OFFSET -0.052820 0.003578 -0.008706
											}
										}
									}
								}
								JOINT RFinger4
								{
									OFFSET -0.236761 0.109408 -0.023442
									CHANNELS 6 Xposition Yposition Zposition Xrotation Yrotation Zrotation
									JOINT RFinger41
									{
										OFFSET -0.068209 0.020731 -0.016468
										CHANNELS 3 Xrotation Yrotation Zrotation
										JOINT RFinger42
										{
											OFFSET -0.050019 0.015210 -0.012057
											CHANNELS 3 Xrotation Yrotation Zrotation
											End Site
											{
												OFFSET -0.049711 0.012951 -0.015480
											}
										}
									}
								}
								JOINT RFinger0
								{
									OFFSET -0.054028 -0.039187 -0.046251
									CHANNELS 6 Xposition Yposition Zposition Xrotation Yrotation Zrotation
									JOINT RFinger01
									{
										OFFSET -0.102525 -0.074623 -0.041987
										CHANNELS 3 Xrotation Yrotation Zrotation
										JOINT RFinger02
										{
											OFFSET -0.067394 -0.046769 -0.029529
											CHANNELS 3 Xrotation Yrotation Zrotation
											End Site
											{
												OFFSET -0.042253 -0.027825 -0.017861
											}
										}
									}
								}
							}
						}
					}
				}
			}
		}
	}
	JOINT RThigh
	{
		OFFSET -0.311787 0.024019 0.105145
		CHANNELS 6 Xposition Yposition Zposition Xrotation Yrotation Zrotation
		JOINT RShin
		{
			OFFSET 0.030806 0.057330 -1.207621
			CHANNELS 3 Xrotation Yrotation Zrotation
			JOINT RFoot
			{
				OFFSET 0.052072 0.055983 -1.184867
				CHANNELS 3 Xrotation Yrotation Zrotation
				JOINT RToe
				{
					OFFSET 0.002394 -0.266404 -0.143250
					CHANNELS 3 Xrotation Yrotation Zrotation
					End Site
					{
						OFFSET -0.000654 -0.053587 -0.002561
					}
				}
			}
		}
	}
	JOINT LThigh
	{
		OFFSET 0.302095 0.015253 0.131718
		CHANNELS 6 Xposition Yposition Zposition Xrotation Yrotation Zrotation
		JOINT LShin
		{
			OFFSET 0.075253 0.056696 -1.205707
			CHANNELS 3 Xrotation Yrotation Zrotation
			JOINT LFoot
			{
				OFFSET 0.052072 0.055983 -1.184868
				CHANNELS 3 Xrotation Yrotation Zrotation
				JOINT LToe
				{
					OFFSET 0.002395 -0.266406 -0.143253
					CHANNELS 3 Xrotation Yrotation Zrotation
					End Site
					{
						OFFSET -0.000654 -0.053587 -0.002561
					}
				}
			}
		}
	}
}
MOTION
Frames: 4
Frame Time: 0.041667
-0.346836 -0.554019 2.537773 14.364808 -12.990533 12.571553 -0.009510 0.142251 0.266717 -8.316922 2.235266 -4.369409 -1.726955 2.410942 1.252700 -7.169929 11.024407 5.480416 -0.028850 -0.018819 0.660496 -10.706659 0.624325 -0.262191 -3.769630 0.536751 -0.108969 0.029635 -0.227484 0.630048 -12.463428 8.024293 2.134028 -40.923157 -51.553271 -51.727830 0.296212 0.272811 -6.062572 -0.000023 0.000226 0.000315 0.265654 -0.079235 0.031409 -0.000000 0.000000 -0.000000 0.000005 0.000009 -0.000000 -0.000001 -0.000003 -0.000003 0.270318 -0.011622 0.038441 0.000002 0.000001 -0.000000 0.000001 -0.000002 0.000000 0.000004 -0.000004 -0.000001 0.257335 0.056355 0.032064 0.000002 0.000005 -0.000000 0.000003 0.000004 0.000000 0.000000 -0.000000 0.000005 0.240922 0.102587 -0.002772 0.000000 0.000000 0.000002 0.000000 0.000012 0.000002 0.000010 -0.000006 0.000002 0.056681 -0.040771 -0.041463 -0.000001 0.000009 0.000003 0.000006 0.000003 -0.000006 -0.000007 0.000015 -0.000017 -0.090411 -0.225769 0.624853 -0.094744 25.291868 2.681346 100.278788 -41.184036 95.245936 -0.576650 -0.905859 17.085384 -0.000787 -0.000198 -0.000426 -0.269527 -0.071592 0.008251 -0.000009 -0.000012 0.000010 -0.000004 0.000009 0.000000 -0.000003 -0.000002 0.000001 -0.272850 -0.003869 0.014937 -0.000003 -0.000006 0.000002 -0.000002 -0.000001 0.000004 0.000001 -0.000003 -0.000007 -0.257431 0.063706 0.009792 -0.000003 -0.000005 0.000000 -0.000004 -0.000007 0.000000 0.000000 -0.000001 0.000000 -0.236761 0.109409 -0.023442 0.000001 -0.000002 0.000004 0.000001 0.000003 0.000003 -0.000000 -0.000015 -0.000014 -0.054027 -0.039187 -0.046251 -0.000002 0.000001 -0.000001 -0.000005 -0.000009 -0.000002 0.000004 0.000016 0.000006 -0.317754 0.004378 0.046607 -20.348855 9.378283 -8.896479 9.753895 -0.102768 0.431847 5.267672 1.731903 -3.485539 -0.000005 0.000000 -0.000002 0.338318 -0.168470 0.316836 -77.648213 -57.475297 5.090474 78.452652 1.181804 3.083869 12.562117 0.894078 -1.942678 -0.000170 0.000037 -0.000014 
-0.343694 -0.544560 2.539006 14.653609 -12.279051 16.497559 -0.009510 0.142251 0.266717 -8.317401 2.234995 -4.368468 -1.740278 2.413670 1.253003 -7.109803 10.935300 5.513066 -0.028850 -0.018819 0.660497 -10.919460 1.096585 -0.066835 -3.759968 0.717669 -0.088687 0.029635 -0.227484 0.630050 -12.488229 8.089322 2.147985 -40.923157 -51.553267 -51.727826 0.176009 0.169051 -3.669914 -0.000021 0.000206 0.000299 0.265655 -0.079235 0.031409 -0.000002 0.000002 0.000001 0.000002 0.000005 -0.000002 -0.000003 0.000002 -0.000003 0.270319 -0.011622 0.038442 0.000000 0.000003 0.000000 0.000002 -0.000002 0.000001 0.000003 -0.000007 -0.000000 0.257336 0.056355 0.032064 0.000002 0.000006 0.000001 0.000002 0.000002 0.000001 -0.000001 0.000000 0.000002 0.240923 0.102587 -0.002772 -0.000005 0.000005 0.000002 -0.000001 0.000011 0.000001 0.000007 -0.000011 0.000002 0.056682 -0.040771 -0.041463 0.000001 0.000012 0.000003 0.000001 0.000006 -0.000001 -0.000011 0.000014 -0.000018 -0.090411 -0.225770 0.624855 0.013206 24.935402 1.647855 102.084779 -41.630013 94.885896 -0.584921 -0.926718 17.454979 -0.000751 -0.000187 -0.000409 -0.269526 -0.071592 0.008251 -0.000005 -0.000012 0.000010 -0.000001 0.000005 0.000001 -0.000004 -0.000004 0.000001 -0.272849 -0.003869 0.014937 -0.000008 -0.000006 0.000003 -0.000002 -0.000001 0.000004 -0.000000 -0.000003 -0.000007 -0.257431 0.063706 0.009792 -0.000004 -0.000003 0.000001 -0.000004 -0.000008 0.000001 0.000000 -0.000001 0.000001 -0.236760 0.109409 -0.023442 0.000005 -0.000002 0.000004 0.000001 0.000006 0.000003 0.000002 -0.000015 -0.000008 -0.054027 -0.039187 -0.046251 -0.000000 -0.000000 0.000000 -0.000002 -0.000009 -0.000002 0.000009 0.000015 0.000010 -0.317754 0.004378 0.046607 -20.506875 9.812247 -8.665598 10.345295 -0.106616 0.458518 6.084347 2.165335 -4.462797 -0.000009 0.000000 -0.000002 0.338318 -0.168470 0.316836 -74.493110 -55.465388 6.626246 76.679488 1.112297 3.042594 7.984676 0.481361 -0.939976 -0.000175 0.000036 -0.000011 
-0.339050 -0.531363 2.538131 15.038880 -11.325221 20.465260 -0.009510 0.142251 0.266717 -8.317617 2.234854 -4.368112 -1.780188 2.403460 1.245674 -7.046046 10.829651 5.543228 -0.028850 -0.018819 0.660496 -11.008270 1.308551 0.021409 -3.758570 0.888761 -0.069807 0.029635 -0.227484 0.630048 -12.520118 8.171273 2.165548 -40.923160 -51.553271 -51.727826 0.086121 0.085834 -1.830300 -0.000021 0.000196 0.000288 0.265654 -0.079234 0.031408 -0.000000 0.000004 -0.000001 0.000006 0.000012 -0.000002 -0.000001 -0.000003 -0.000004 0.270318 -0.011622 0.038441 0.000000 0.000001 -0.000002 -0.000001 -0.000001 0.000002 0.000000 -0.000005 -0.000002 0.257335 0.056355 0.032064 0.000000 0.000004 -0.000002 0.000001 0.000005 0.000002 -0.000002 0.000005 0.000006 0.240922 0.102587 -0.002772 -0.000002 -0.000000 0.000000 -0.000002 0.000012 0.000004 0.000003 -0.000007 0.000004 0.056681 -0.040770 -0.041464 0.000003 0.000010 0.000003 0.000001 0.000001 -0.000003 -0.000007 0.000013 -0.000018 -0.090411 -0.225770 0.624853 0.083190 24.689116 0.938799 103.939572 -42.261140 94.173364 -0.615775 -1.001284 18.739157 -0.000721 -0.000179 -0.000390 -0.269526 -0.071592 0.008251 -0.000007 -0.000009 0.000009 -0.000002 0.000006 0.000000 0.000002 -0.000004 0.000001 -0.272849 -0.003869 0.014937 -0.000004 -0.000004 0.000002 -0.000003 -0.000001 0.000004 0.000003 -0.000003 -0.000006 -0.257431 0.063706 0.009792 -0.000005 -0.000001 -0.000001 -0.000004 -0.000009 0.000002 0.000003 -0.000001 0.000000 -0.236760 0.109409 -0.023442 0.000004 0.000000 0.000007 0.000005 0.000005 0.000005 -0.000001 -0.000014 -0.000012 -0.054027 -0.039187 -0.046251 -0.000001 0.000006 -0.000003 -0.000004 -0.000009 0.000001 0.000007 0.000014 0.000009 -0.317754 0.004378 0.046606 -20.945055 10.168533 -8.459416 10.982756 -0.110459 0.487308 6.784816 2.366512 -4.987204 -0.000003 0.000001 -0.000002 0.338318 -0.168470 0.316836 -71.310713 -53.587021 8.514623 73.985436 1.009219 2.975822 2.960094 -0.065441 0.169968 -0.000190 0.000035 -0.000011 
-0.332788 -0.514394 2.534132 15.663673 -9.981398 24.777928 -0.009510 0.142251 0.266717 -8.317706 2.234739 -4.367868 -1.798708 2.388555 1.237610 -6.981654 10.704338 5.565812 -0.028850 -0.018819 0.660497 -10.917681 1.275651 0.010702 -3.758261 1.050995 -0.051953 0.029635 -0.227484 0.630049 -12.558365 8.268333 2.186345 -40.923160 -51.553271 -51.727823 0.042069 0.043173 -0.913417 -0.000023 0.000185 0.000276 0.265655 -0.079234 0.031408 -0.000003 0.000002 -0.000001 0.000007 0.000010 -0.000002 -0.000002 -0.000004 -0.000004 0.270319 -0.011622 0.038441 -0.000001 0.000002 -0.000000 -0.000000 -0.000000 -0.000000 0.000002 -0.000004 -0.000002 0.257335 0.056355 0.032064 0.000001 0.000004 -0.000001 -0.000000 0.000003 0.000001 -0.000000 0.000003 0.000003 0.240922 0.102587 -0.002772 -0.000000 -0.000002 0.000004 -0.000005 0.000012 0.000003 0.000005 -0.000007 0.000001 0.056682 -0.040771 -0.041464 0.000003 0.000007 -0.000000 0.000006 0.000004 -0.000004 -0.000008 0.000013 -0.000018 -0.090411 -0.225770 0.624854 0.182060 24.316563 -0.126298 105.535732 -43.218992 92.773749 -0.655913 -1.107461 20.545839 -0.000685 -0.000170 -0.000372 -0.269527 -0.071592 0.008251 -0.000007 -0.000010 0.000010 -0.000004 0.000006 -0.000000 0.000001 -0.000002 0.000001 -0.272849 -0.003869 0.014937 -0.000009 -0.000006 0.000003 -0.000000 0.000000 0.000003 0.000002 -0.000005 -0.000007 -0.257431 0.063706 0.009791 -0.000006 -0.000003 -0.000000 -0.000007 -0.000008 0.000001 0.000003 -0.000003 0.000001 -0.236761 0.109408 -0.023442 0.000004 -0.000001 0.000005 0.000004 0.000005 0.000003 -0.000002 -0.000016 -0.000013 -0.054027 -0.039187 -0.046251 -0.000002 0.000003 -0.000000 -0.000000 -0.000005 -0.000006 0.000007 0.000015 0.000007 -0.317754 0.004378 0.046607 -21.665341 10.485113 -8.331022 11.444556 -0.113040 0.508191 7.270416 2.397477 -5.110228 -0.000004 -0.000001 -0.000002 0.338318 -0.168470 0.316836 -68.479770 -50.940729 9.824784 70.291724 0.873229 2.876554 0.536104 -0.454183 0.882769 -0.000204 0.000036 -0.000013 
